<svg xmlns="http://www.w3.org/2000/svg" viewBox="0 0 32 32" id="shovel">
  <path d="M30.094,22.317l-4.6-4.613a2.513,2.513,0,0,0-3.535,0l-.743.743a1.975,1.975,0,0,0-1.131-.623L18.3,16.04l7.049-7.049a3.21,3.21,0,0,0,3.229-.839L29.852,6.87l0,0,0,0,1.495-1.5a.5.5,0,0,0,0-.707L27.374.676a.5.5,0,0,0-.707,0l-2.78,2.79A3.3,3.3,0,0,0,23.043,6.7L16,13.743,8.951,6.694a3.3,3.3,0,0,0-.834-3.227L6.906,2.256a.473.473,0,0,0-.05-.075.474.474,0,0,0-.075-.05L5.331.681a.5.5,0,0,0-.707,0L.644,4.661a.5.5,0,0,0,0,.707L3.43,8.154a3.225,3.225,0,0,0,3.222.836L13.7,16.04l-1.786,1.786a1.975,1.975,0,0,0-1.131.623l-.743-.743a2.514,2.514,0,0,0-3.538,0l-4.6,4.609A6.455,6.455,0,0,0,0,26.91V29.5A2.5,2.5,0,0,0,2.5,32H5.09a6.454,6.454,0,0,0,4.593-1.906l4.613-4.6a2.513,2.513,0,0,0,0-3.535l-.706-.706a1.975,1.975,0,0,0,.622-1.123L16,18.337l1.79,1.791a1.975,1.975,0,0,0,.622,1.123l-.706.706a2.514,2.514,0,0,0,0,3.538l4.609,4.6A6.455,6.455,0,0,0,26.91,32H29.5A2.5,2.5,0,0,0,32,29.5V26.91A6.454,6.454,0,0,0,30.094,22.317ZM19.81,18.788c.007,0,.013,0,.019,0a.993.993,0,0,1,.711.393l1.514,2.031a.626.626,0,0,1-.875.875l-2.03-1.514a.992.992,0,0,1-.393-.707c0-.008,0-.016,0-.024a.993.993,0,0,1,1.059-1.058ZM27.02,1.737,30.293,5.01l-.792.8L26.228,2.532ZM24.6,4.172l.927-.931L28.8,6.514l-.928.932A2.314,2.314,0,1,1,24.6,4.172ZM1.7,5.014,4.977,1.742l.806.806L2.51,5.82ZM4.137,7.447l-.92-.92L6.49,3.254l.92.92A2.314,2.314,0,1,1,4.137,7.447ZM7.629,8.552a3.115,3.115,0,0,0,.883-.883l6.781,6.781-.883.883Zm3.831,10.633a.992.992,0,0,1,.7-.389.492.492,0,0,0,.063-.009h.036a.994.994,0,0,1,.992,1.061c0,.008,0,.016,0,.024a.992.992,0,0,1-.393.707l-2.03,1.514a.626.626,0,0,1-.875-.875Zm2.127,5.6-4.61,4.6A5.462,5.462,0,0,1,5.09,31H2.5A1.5,1.5,0,0,1,1,29.5V26.91a5.463,5.463,0,0,1,1.614-3.887l4.6-4.607a1.51,1.51,0,0,1,2.125,0l.831.831L9.144,20.618a1.636,1.636,0,0,0,1.3,2.607,1.629,1.629,0,0,0,.977-.332l1.373-1.024.794.794A1.51,1.51,0,0,1,13.587,24.786Zm2.061-7.511h0l-1.615,1.615a1.794,1.794,0,0,0-.883-.884l1.615-1.615h0L16.353,14.8h0L23.487,7.67a3.29,3.29,0,0,0,.4.483,3.324,3.324,0,0,0,.484.4l-7.132,7.132h0Zm2.685,1.094a1.976,1.976,0,0,0-.363.523L16.707,17.63l.883-.883,1.261,1.261A1.971,1.971,0,0,0,18.333,18.37ZM31,29.5A1.5,1.5,0,0,1,29.5,31H26.91a5.463,5.463,0,0,1-3.887-1.614l-4.607-4.6a1.51,1.51,0,0,1,0-2.125l.794-.794,1.373,1.024a1.629,1.629,0,0,0,.977.332,1.636,1.636,0,0,0,1.3-2.607l-1.024-1.373.831-.831a1.511,1.511,0,0,1,2.123,0l4.6,4.61A5.462,5.462,0,0,1,31,26.91Z"></path>
</svg>
